<?xml version="1.0" encoding="utf-8"?>
<!-- Generator: Adobe Illustrator 23.0.0, SVG Export Plug-In . SVG Version: 6.00 Build 0)  -->
<svg version="1.1" id="Calque_1" xmlns="http://www.w3.org/2000/svg" xmlns:xlink="http://www.w3.org/1999/xlink" x="0px" y="0px"
	 viewBox="0 0 158.4 46.8" style="enable-background:new 0 0 158.4 46.8;" xml:space="preserve">
<style type="text/css">
	.st0{fill:#F1925B;}
	.st1{fill:#FFFFFF;}
</style>
<path class="st0" d="M-140.7,87.7c-0.2-0.9-0.5-1.6-1.6-1.6c0.4-0.8,1.3-1.5,1.8-1.1C-139.6,85.7-140.2,86.8-140.7,87.7z"/>
<g>
	<path class="st1" d="M35.6,24.5c0,3.5,0.4,7,1.8,10.2c0.4,0.9,0.9,1.7,1.6,2.4c1.2,1.1,2.6,1,3.5-0.3c1-1.4,1.5-3,1.9-4.6
		c0.2-0.6,0.3-1.2,0.4-1.8c0.1-0.3,0.2-0.4,0.5-0.4c2.3,0.4,4.5,0.7,6.8,1.1c0.2,0,0.4,0,0.3,0.4c-0.7,3.6-1.8,7.1-4.1,10.1
		c-3.4,4.6-10,5.2-14.2,1.4c-2.6-2.4-4.1-5.5-5.1-8.9c-2-7.6-1.9-15.1,1-22.4c1.1-2.8,2.7-5.3,5.3-7c4-2.7,9-2,12.2,1.5
		c2.4,2.6,3.6,5.7,4.4,9c0.2,0.6,0.2,1.2,0.4,1.8c0.1,0.4,0,0.5-0.4,0.6c-1.4,0.2-2.7,0.4-4.1,0.6c-0.9,0.1-1.7,0.2-2.6,0.4
		c-0.5,0.1-0.6,0-0.7-0.5c-0.3-1.6-0.7-3.2-1.4-4.7c-0.3-0.8-0.8-1.5-1.4-2.1c-0.7-0.7-1.6-0.7-2.4-0.2c-1.3,0.8-1.9,2.1-2.4,3.4
		c-0.8,2.2-1.2,4.4-1.4,6.7C35.6,22.4,35.6,23.4,35.6,24.5z"/>
	<path class="st1" d="M130.6,1.5c-0.2,1.9-0.4,3.8-0.2,5.6c0.1,0.5,0.1,0.9,0.1,1.6c-0.5-0.5-0.9-0.9-1.2-1.4
		c-0.3-0.5-0.5-0.4-0.8,0c-1.4,2.5-2.8,5.1-4.3,7.6c-0.2,0.3-0.4,0.4-0.7,0.5c-6.2,1.4-12.4,2.8-18.6,4.3c-1.6,0.4-3.3,0.7-4.9,1.1
		c-0.4,0.1-0.6,0-0.9-0.2c-3-2-5.9-4.1-8.9-6.1c-0.6-0.4-0.6-0.4-1,0.3c-1.1,2.1-2.1,4.1-3.2,6.2c-0.2,0.4-0.4,0.6-0.9,0.5
		c-0.5,0-1.1,0-1.7,0c-0.4,0-0.5,0.1-0.5,0.5c0,1.4,0,2.7,0,4.1c0,0.5-0.1,0.9-0.3,1.3c-1.8,3.5-3.6,7-5.4,10.4
		c-0.5,0.9-0.6,1.9-0.5,2.9c0.1,1.3,0.1,2.6,0.2,3.9c0,0.3-0.1,0.4-0.4,0.4c-1.1,0-2.2,0-3.3,0c-0.4,0-0.5-0.2-0.5-0.5
		c0-0.5,0-1,0-1.5c0.2-2.4-0.4-4.7-1-7c-1.3-4.6-2.5-9.3-3.8-13.9c1.4,0,2.7,0,4,0c0.4,0,0.4,0.2,0.5,0.5c0.7,2.9,1.3,5.7,2,8.6
		c0.1,0.4,0.2,0.8,0.3,1.3c0.6-1,1.2-2,1.8-3c3.4-5.6,6.8-11.2,10.2-16.8c0.4-0.7,0.9-1.4,1.3-2.2c0.2-0.3,0.3-0.5,0.7-0.2
		c2.6,1.8,5.2,3.6,7.8,5.4c1,0.7,2.1,1.4,3.1,2.1c0.2,0.1,0.4,0.2,0.6,0.1c3.9-0.9,7.7-1.7,11.6-2.6c3.2-0.7,6.5-1.5,9.7-2.2
		c0.3-0.1,0.5-0.2,0.7-0.5c1.2-2.2,2.5-4.4,3.7-6.7c0.2-0.3,0.2-0.5-0.2-0.5c-0.6-0.1-1.3-0.2-2.1-0.3c2.4-1,4.5-2.3,6.4-3.9
		C130.6,1.1,130.6,1.2,130.6,1.5z"/>
	<path class="st1" d="M101.5,35.7c0-2.9,0-5.7,0-8.6c0-0.6-0.2-0.8-0.8-0.7c-1,0.1-2,0-3,0c-0.3,0-0.5-0.1-0.5-0.5
		c0-1.1,0-2.3,0-3.4c0-0.3,0.1-0.4,0.4-0.4c4,0,7.9,0,11.9,0c0.4,0,0.4,0.1,0.4,0.5c0,1.1,0,2.3,0,3.4c0,0.4-0.2,0.4-0.5,0.4
		c-1,0-2.1,0-3.1,0c-0.5,0-0.6,0.1-0.6,0.6c0,5.8,0,11.5,0,17.3c0,0.6-0.1,0.8-0.7,0.7c-1-0.1-2,0-3.1,0c-0.4,0-0.6-0.1-0.6-0.6
		C101.5,41.6,101.5,38.7,101.5,35.7z"/>
	<path class="st1" d="M127.9,22.3c0,1.1,0,2.2,0,3.4c0,0.3-0.2,0.4-0.5,0.5c-1.4,0.6-2.7,1.2-4.1,1.9c-0.1,0.1-0.4,0.1-0.4,0.3
		c0,0.2,0.3,0.2,0.4,0.3c1.4,0.6,2.7,1.3,4.1,1.9c0.3,0.1,0.4,0.3,0.4,0.7c0,1.1,0,2.1,0,3.2c-0.2,0.1-0.4-0.1-0.5-0.1
		c-2.3-1.1-4.6-2.2-7-3.4c-0.4-0.2-0.7-0.2-1.1,0c-2.2,1.1-4.4,2.1-6.6,3.2c-0.2,0.1-0.4,0.2-0.7,0.3c0-1.2,0-2.3,0-3.5
		c0-0.3,0.2-0.3,0.4-0.4c1.2-0.6,2.4-1.1,3.6-1.6c0.2-0.1,0.6-0.1,0.6-0.4c0-0.3-0.4-0.3-0.7-0.4c-1.2-0.5-2.3-1.1-3.5-1.6
		c-0.3-0.1-0.5-0.3-0.5-0.7c0-1.1,0-2.1,0-3.2c0.3-0.1,0.4,0.1,0.6,0.2c2.2,1.1,4.4,2.1,6.6,3.2c0.4,0.2,0.8,0.2,1.2,0
		c2.3-1.1,4.5-2.2,6.8-3.4C127.4,22.4,127.6,22.3,127.9,22.3z"/>
	<path class="st1" d="M120,44.7c-2.4,0-4.9,0-7.3,0c-0.5,0-0.6-0.1-0.6-0.6c0-2.6,0-5.3,0-7.9c0-0.5,0.2-0.6,0.6-0.6
		c0.5,0,1.1,0,1.6,0c0.5,0,0.7,0.1,0.6,0.6c0,1.4,0,2.9,0,4.3c0,0.5,0.1,0.6,0.6,0.6c0.8,0,1.7,0,2.5,0c0.4,0,0.5-0.1,0.5-0.5
		c0-0.9,0-1.9,0-2.8c0-0.4,0.1-0.5,0.5-0.5c0.6,0,1.2,0,1.8,0c0.4,0,0.5,0.1,0.5,0.5c0,0.9,0,1.8,0,2.7c0,0.5,0.2,0.6,0.6,0.6
		c0.9,0,1.8,0,2.7,0c0.4,0,0.5-0.1,0.5-0.5c0-1.5,0-3,0-4.5c0-0.4,0.1-0.6,0.6-0.6c0.6,0,1.2,0,1.8,0c0.3,0,0.4,0.1,0.4,0.4
		c0,2.8,0,5.5,0,8.3c0,0.4-0.3,0.4-0.5,0.4C124.9,44.7,122.4,44.7,120,44.7z"/>
	<path class="st1" d="M65.3,39.1c-0.2-0.5-0.3-0.9,0.2-1.3c0.3-0.2,0.5-0.6,0.7-0.9c2-4.1,1.9-8.2-0.3-12.1c-1-1.7-2.6-2.6-4.6-2.6
		c-1.9,0-3.7,0-5.6,0c-0.4,0-0.5,0.1-0.5,0.5c0,7.3,0,14.6,0,22c0,0.4,0.1,0.5,0.5,0.5c1.1,0,2.2,0,3.2,0c0.4,0,0.5-0.2,0.5-0.6
		c0-1.1,0-2.2,0-3.3c0-1.1,0-1.1,1.1-1.2c0.5,0,0.7,0.1,0.9,0.6c0.5,1.3,1.1,2.6,1.6,4c0.1,0.3,0.3,0.4,0.6,0.4c1.4,0,2.8,0,4.2,0
		C67,43,66.2,41,65.3,39.1z M62.7,34.6c-0.4,1-0.8,1.3-1.9,1.3c-1.4,0-1.4,0-1.4-1.4c0-1.1,0-2.2,0-3.4c0-1.3,0-2.7,0-4
		c0-0.6,0.2-0.7,0.7-0.7c0.5,0.1,1.1-0.1,1.6,0.1c0.6,0.3,0.9,0.8,1.1,1.3C63.5,30.1,63.5,32.4,62.7,34.6z"/>
	<path class="st1" d="M94.6,25.2c-1.1-2-2.8-3.1-5.2-3c-1.7,0.1-3.3,0-5,0c-0.5,0-0.6,0.1-0.6,0.6c0,3.6,0,7.2,0,10.8
		c0,3.6,0,7.3,0,10.9c0,0.5,0.1,0.6,0.6,0.6c1,0,2.1,0,3.1,0c0.4,0,0.5-0.1,0.5-0.5c0-0.9,0-1.8,0-2.7c0-0.6-0.3-1.4,0.1-1.7
		c0.3-0.3,1.1-0.1,1.7-0.1c1.7,0,3.1-0.7,4.2-2c1.3-1.5,1.8-3.3,2-5.2C96.2,30.2,96,27.6,94.6,25.2z M91.5,34
		c-0.4,1.5-1,1.9-2.5,1.9c-1,0-1,0-1-1c0-1.3,0-2.5,0-3.8c0-1.4,0-2.9,0-4.3c0-0.4,0.1-0.5,0.5-0.5c2.1,0,2.8,0.5,3.2,2.6
		C92,30.6,92,32.3,91.5,34z"/>
</g>
</svg>
